# Blender v2.79 (sub 0) OBJ File: 'hoe.blend'
# www.blender.org
mtllib hoe.mtl
o hoe_Mesh1_Model
v 0.017948 0.000508 0.616584
v 0.026532 0.000455 -0.683388
v 0.000160 0.030529 -0.683562
v -0.003543 -0.025918 -0.683586
v -0.012127 -0.025864 0.616385
v -0.029914 0.004157 -0.683760
v -0.038498 0.004211 0.616211
v -0.008798 0.030583 0.616407
v 0.031130 0.053279 0.565438
v 0.069405 -0.016717 0.565690
v -0.089323 -0.016717 0.564644
v -0.050498 0.053279 0.564900
v 0.031064 0.053279 0.575438
v 0.069339 -0.016717 0.575690
v -0.050564 0.053279 0.574899
v -0.089389 -0.016717 0.574643
v -0.185726 -0.066868 0.574008
v -0.185660 -0.066868 0.564009
v 0.165674 -0.066868 0.576325
v 0.048540 -0.128232 0.575553
v -0.068593 -0.128232 0.574781
v 0.048606 -0.128232 0.565553
v 0.165740 -0.066868 0.566325
v -0.068527 -0.128232 0.564781
vt 0.540394 1.357830
vt 0.504119 1.401160
vt -0.904011 0.222244
vt -0.867736 0.178917
vt -0.745435 1.556050
vt -0.722694 1.504330
vt -0.670965 1.527070
vt -0.693706 1.578800
vt -0.035310 -0.199598
vt 0.016420 -0.176858
vt -0.774424 1.481590
vt 0.090708 -0.206308
vt 0.067786 -0.154276
vt 0.038838 -0.228727
vt -0.010149 0.293481
vt -0.035560 0.095482
vt 0.334346 0.240133
vt 0.180081 0.367869
vt 0.323905 0.293481
vt 0.349317 0.095482
vt 0.374135 0.098667
vt 0.348724 0.296666
vt 0.133676 0.367869
vt -0.020590 0.240133
vt 0.117717 0.387142
vt -0.036548 0.259406
vt 0.333018 0.316785
vt 0.142789 0.391173
vt -0.290797 0.211055
vt -0.023267 0.265012
vt -0.293475 0.235933
vt 0.528118 -0.109180
vt 0.199223 -0.145438
vt -0.073749 -0.038693
vt 0.201965 -0.170310
vt 0.530859 -0.134051
vt -0.082862 -0.061997
vt 0.190110 -0.168742
vt -0.309684 0.194641
vt -0.092635 -0.055107
vt 0.387505 -0.038693
vt 0.604554 0.211055
vt -0.214361 -0.109180
vt 0.114533 -0.145438
vt 0.546961 -0.092717
vt 0.368161 0.111945
vn 0.6593 -0.7519 0.0044
vn 0.0066 -0.0000 -1.0000
vn -0.7519 -0.6593 -0.0049
vn -0.0066 0.0000 1.0000
vn 0.7473 0.6644 0.0051
vn 0.7495 0.6619 0.0050
vn 0.7517 0.6595 0.0049
vn -0.6638 0.7479 -0.0046
vn -0.6616 0.7498 -0.0045
vn -0.6594 0.7518 -0.0044
vn 0.8774 0.4798 0.0058
vn 0.6998 0.7143 0.0046
vn -0.6977 0.7164 -0.0046
vn -0.8745 0.4851 -0.0058
vn 0.0000 1.0000 0.0000
vn -0.4617 0.8870 -0.0030
vn 0.4640 -0.8858 0.0031
vn 0.2389 -0.9710 0.0016
vn -0.2389 -0.9710 -0.0016
vn -0.4640 -0.8858 -0.0031
vn 0.4617 0.8870 0.0030
usemtl brown
s 1
f 4/1/1 2/2/1 1/3/1 5/4/1
f 4/5/2 6/6/2 3/7/2 2/8/2
f 5/9/3 7/10/3 6/6/3 4/11/3
f 1/12/4 8/13/4 7/10/4 5/14/4
f 3/7/5 8/13/6 1/3/7 2/2/6
f 3/7/8 6/6/9 7/10/10 8/13/9
usemtl ltgray
f 9/15/2 10/16/2 11/17/2 12/18/2
f 13/19/11 14/20/12 10/21/12 9/22/11
f 15/23/4 16/24/4 14/20/4 13/19/4
f 16/24/13 15/23/14 12/25/14 11/26/13
f 15/23/15 13/19/15 9/27/15 12/28/15
f 17/29/16 16/24/13 11/30/13 18/31/16
f 16/24/4 17/29/4 19/32/4 14/20/4
f 20/33/4 19/32/4 17/29/4 21/34/4
f 19/32/17 20/33/18 22/35/18 23/36/17
f 20/33/18 21/34/19 24/37/19 22/38/18
f 21/34/19 17/29/20 18/39/20 24/40/19
f 24/41/2 18/42/2 23/43/2 22/44/2
f 10/16/2 23/43/2 18/42/2 11/17/2
f 14/20/12 19/32/21 23/45/21 10/46/12
